Comme-Medium.ufo
<glyph name="percent" format="1">
  <advance width="1749"/>
  <unicode hex="0025"/>
  <outline>
    <contour>
      <point x="405" y="839" type="curve" smooth="yes"/>
      <point x="259" y="839"/>
      <point x="217" y="953"/>
      <point x="217" y="1109" type="curve" smooth="yes"/>
      <point x="217" y="1260"/>
      <point x="259" y="1375"/>
      <point x="405" y="1375" type="curve" smooth="yes"/>
      <point x="548" y="1375"/>
      <point x="590" y="1265"/>
      <point x="590" y="1109" type="curve" smooth="yes"/>
      <point x="590" y="958"/>
      <point x="549" y="839"/>
    </contour>
    <contour>
      <point x="402" y="716" type="curve" smooth="yes"/>
      <point x="634" y="716"/>
      <point x="737" y="887"/>
      <point x="737" y="1107" type="curve" smooth="yes"/>
      <point x="737" y="1331"/>
      <point x="637" y="1496"/>
      <point x="402" y="1496" type="curve" smooth="yes"/>
      <point x="173" y="1496"/>
      <point x="78" y="1328"/>
      <point x="78" y="1107" type="curve" smooth="yes"/>
      <point x="78" y="887"/>
      <point x="169" y="716"/>
    </contour>
    <contour>
      <point x="343" y="0" type="line"/>
      <point x="507" y="0" type="line"/>
      <point x="1334" y="1476" type="line"/>
      <point x="1179" y="1476" type="line"/>
    </contour>
    <contour>
      <point x="1279" y="112" type="curve" smooth="yes"/>
      <point x="1134" y="112"/>
      <point x="1091" y="228"/>
      <point x="1091" y="382" type="curve" smooth="yes"/>
      <point x="1091" y="533"/>
      <point x="1134" y="648"/>
      <point x="1279" y="648" type="curve" smooth="yes"/>
      <point x="1422" y="648"/>
      <point x="1465" y="539"/>
      <point x="1465" y="382" type="curve" smooth="yes"/>
      <point x="1465" y="231"/>
      <point x="1423" y="112"/>
    </contour>
    <contour>
      <point x="1277" y="-11" type="curve" smooth="yes"/>
      <point x="1508" y="-11"/>
      <point x="1612" y="160"/>
      <point x="1612" y="381" type="curve" smooth="yes"/>
      <point x="1612" y="605"/>
      <point x="1511" y="770"/>
      <point x="1277" y="770" type="curve" smooth="yes"/>
      <point x="1048" y="770"/>
      <point x="943" y="601"/>
      <point x="943" y="381" type="curve" smooth="yes"/>
      <point x="943" y="160"/>
      <point x="1044" y="-11"/>
    </contour>
  </outline>
</glyph>
<glyph name="two" format="1">
  <advance width="1285"/>
  <unicode hex="0032"/>
  <outline>
    <contour>
      <point x="189" y="0" type="line"/>
      <point x="1067" y="0" type="line"/>
      <point x="1076" y="172" type="line"/>
      <point x="410" y="172" type="line"/>
      <point x="824" y="567" type="line" smooth="yes"/>
      <point x="1022" y="755"/>
      <point x="1093" y="861"/>
      <point x="1093" y="1050" type="curve" smooth="yes"/>
      <point x="1093" y="1316"/>
      <point x="895" y="1476"/>
      <point x="613" y="1476" type="curve" smooth="yes"/>
      <point x="425" y="1476"/>
      <point x="253" y="1394"/>
      <point x="150" y="1275" type="curve"/>
      <point x="255" y="1155" type="line"/>
      <point x="276" y="1155" type="line"/>
      <point x="353" y="1244"/>
      <point x="484" y="1299"/>
      <point x="610" y="1299" type="curve" smooth="yes"/>
      <point x="754" y="1299"/>
      <point x="883" y="1219"/>
      <point x="883" y="1047" type="curve" smooth="yes"/>
      <point x="883" y="903"/>
      <point x="825" y="835"/>
      <point x="694" y="707" type="curve" smooth="yes"/>
      <point x="154" y="176" type="line"/>
    </contour>
  </outline>
</glyph>
<glyph name="six" format="1">
  <advance width="1285"/>
  <unicode hex="0036"/>
  <outline>
    <contour>
      <point x="658" y="-20" type="curve" smooth="yes"/>
      <point x="963" y="-20"/>
      <point x="1152" y="183"/>
      <point x="1152" y="446" type="curve" smooth="yes"/>
      <point x="1152" y="726"/>
      <point x="959" y="893"/>
      <point x="735" y="893" type="curve" smooth="yes"/>
      <point x="625" y="893"/>
      <point x="543" y="850"/>
      <point x="483" y="802" type="curve"/>
      <point x="639" y="1011"/>
      <point x="794" y="1222"/>
      <point x="950" y="1432" type="curve"/>
      <point x="950" y="1456" type="line"/>
      <point x="713" y="1456" type="line"/>
      <point x="362" y="971" type="line" smooth="yes"/>
      <point x="236" y="797"/>
      <point x="162" y="660"/>
      <point x="162" y="454" type="curve" smooth="yes"/>
      <point x="162" y="198"/>
      <point x="343" y="-20"/>
    </contour>
    <contour>
      <point x="656" y="146" type="curve" smooth="yes"/>
      <point x="477" y="146"/>
      <point x="378" y="281"/>
      <point x="378" y="444" type="curve" smooth="yes"/>
      <point x="378" y="662"/>
      <point x="535" y="743"/>
      <point x="660" y="743" type="curve" smooth="yes"/>
      <point x="834" y="743"/>
      <point x="934" y="619"/>
      <point x="934" y="448" type="curve" smooth="yes"/>
      <point x="934" y="284"/>
      <point x="835" y="146"/>
    </contour>
  </outline>
</glyph>
<glyph name="seven" format="1">
  <advance width="1285"/>
  <unicode hex="0037"/>
  <outline>
    <contour>
      <point x="339" y="0" type="line"/>
      <point x="568" y="0" type="line"/>
      <point x="1102" y="1295" type="line"/>
      <point x="1101" y="1456" type="line"/>
      <point x="173" y="1456" type="line"/>
      <point x="190" y="1285" type="line"/>
      <point x="867" y="1285" type="line"/>
    </contour>
  </outline>
</glyph>
<glyph name="nine" format="1">
  <advance width="1285"/>
  <unicode hex="0039"/>
  <outline>
    <contour>
      <point x="347" y="0" type="line"/>
      <point x="584" y="0" type="line"/>
      <point x="955" y="489" type="line"/>
      <point x="1084" y="656"/>
      <point x="1169" y="797"/>
      <point x="1169" y="1002" type="curve" smooth="yes"/>
      <point x="1169" y="1258"/>
      <point x="988" y="1476"/>
      <point x="671" y="1476" type="curve" smooth="yes"/>
      <point x="368" y="1476"/>
      <point x="169" y="1277"/>
      <point x="169" y="1014" type="curve" smooth="yes"/>
      <point x="169" y="733"/>
      <point x="368" y="563"/>
      <point x="598" y="563" type="curve" smooth="yes"/>
      <point x="675" y="563"/>
      <point x="755" y="587"/>
      <point x="821" y="628" type="curve"/>
      <point x="791" y="589"/>
      <point x="740" y="524"/>
      <point x="710" y="486" type="curve" smooth="yes"/>
      <point x="605" y="351"/>
      <point x="453" y="157"/>
      <point x="347" y="24" type="curve"/>
    </contour>
    <contour>
      <point x="661" y="713" type="curve" smooth="yes"/>
      <point x="481" y="713"/>
      <point x="387" y="842"/>
      <point x="387" y="1012" type="curve" smooth="yes"/>
      <point x="387" y="1177"/>
      <point x="492" y="1311"/>
      <point x="671" y="1311" type="curve" smooth="yes"/>
      <point x="851" y="1311"/>
      <point x="952" y="1176"/>
      <point x="952" y="1013" type="curve" smooth="yes"/>
      <point x="952" y="794"/>
      <point x="790" y="713"/>
    </contour>
  </outline>
</glyph>
<glyph name="question" format="1">
  <advance width="954"/>
  <unicode hex="003F"/>
  <outline>
    <contour>
      <point x="329" y="447" type="curve"/>
      <point x="411" y="439" type="line"/>
      <point x="538" y="787"/>
      <point x="799" y="832"/>
      <point x="799" y="1153" type="curve" smooth="yes"/>
      <point x="799" y="1392"/>
      <point x="629" y="1498"/>
      <point x="438" y="1498" type="curve" smooth="yes"/>
      <point x="315" y="1498"/>
      <point x="197" y="1458"/>
      <point x="116" y="1390" type="curve"/>
      <point x="163" y="1231" type="line"/>
      <point x="215" y="1264"/>
      <point x="310" y="1314"/>
      <point x="408" y="1314" type="curve" smooth="yes"/>
      <point x="529" y="1314"/>
      <point x="593" y="1245"/>
      <point x="593" y="1118" type="curve" smooth="yes"/>
      <point x="593" y="920"/>
      <point x="371" y="770"/>
    </contour>
    <contour>
      <point x="370" y="-15" type="curve" smooth="yes"/>
      <point x="453" y="-15"/>
      <point x="495" y="42"/>
      <point x="495" y="113" type="curve" smooth="yes"/>
      <point x="495" y="180"/>
      <point x="453" y="238"/>
      <point x="370" y="238" type="curve" smooth="yes"/>
      <point x="285" y="238"/>
      <point x="241" y="180"/>
      <point x="241" y="113" type="curve" smooth="yes"/>
      <point x="241" y="43"/>
      <point x="285" y="-15"/>
    </contour>
  </outline>
</glyph>
<glyph name="at" format="1">
  <advance width="1958"/>
  <unicode hex="0040"/>
  <outline>
    <contour>
      <point x="958" y="-180" type="curve" smooth="yes"/>
      <point x="1156" y="-180"/>
      <point x="1358" y="-131"/>
      <point x="1487" y="-39" type="curve"/>
      <point x="1438" y="81" type="line"/>
      <point x="1302" y="-4"/>
      <point x="1129" y="-35"/>
      <point x="961" y="-35" type="curve" smooth="yes"/>
      <point x="553" y="-35"/>
      <point x="325" y="241"/>
      <point x="325" y="628" type="curve" smooth="yes"/>
      <point x="325" y="1034"/>
      <point x="589" y="1363"/>
      <point x="1019" y="1363" type="curve" smooth="yes"/>
      <point x="1442" y="1363"/>
      <point x="1645" y="1099"/>
      <point x="1645" y="779" type="curve" smooth="yes"/>
      <point x="1645" y="507"/>
      <point x="1527" y="369"/>
      <point x="1417" y="369" type="curve" smooth="yes"/>
      <point x="1350" y="369"/>
      <point x="1299" y="424"/>
      <point x="1299" y="505" type="curve" smooth="yes"/>
      <point x="1299" y="632"/>
      <point x="1336" y="822"/>
      <point x="1364" y="1030" type="curve"/>
      <point x="1282" y="1073"/>
      <point x="1144" y="1108"/>
      <point x="1033" y="1108" type="curve" smooth="yes"/>
      <point x="739" y="1108"/>
      <point x="580" y="845"/>
      <point x="580" y="590" type="curve" smooth="yes"/>
      <point x="580" y="388"/>
      <point x="688" y="227"/>
      <point x="894" y="227" type="curve" smooth="yes"/>
      <point x="1033" y="227"/>
      <point x="1128" y="332"/>
      <point x="1177" y="450" type="curve"/>
      <point x="1200" y="295"/>
      <point x="1305" y="233"/>
      <point x="1417" y="233" type="curve"/>
      <point x="1596" y="233"/>
      <point x="1804" y="415"/>
      <point x="1804" y="771" type="curve" smooth="yes"/>
      <point x="1804" y="1220"/>
      <point x="1465" y="1507"/>
      <point x="1026" y="1507" type="curve" smooth="yes"/>
      <point x="519" y="1507"/>
      <point x="148" y="1132"/>
      <point x="148" y="632" type="curve" smooth="yes"/>
      <point x="148" y="124"/>
      <point x="479" y="-180"/>
    </contour>
    <contour>
      <point x="911" y="361" type="curve" smooth="yes"/>
      <point x="799" y="361"/>
      <point x="751" y="449"/>
      <point x="751" y="592" type="curve" smooth="yes"/>
      <point x="751" y="810"/>
      <point x="872" y="981"/>
      <point x="1049" y="981" type="curve" smooth="yes"/>
      <point x="1078" y="981"/>
      <point x="1136" y="973"/>
      <point x="1178" y="964" type="curve"/>
      <point x="1137" y="712" type="line"/>
      <point x="1105" y="502"/>
      <point x="1054" y="361"/>
    </contour>
  </outline>
</glyph>
<glyph name="C" format="1">
  <advance width="1466"/>
  <unicode hex="0043"/>
  <outline>
    <contour>
      <point x="797" y="1456" type="move" name="top"/>
    </contour>
    <contour>
      <point x="806" y="1" type="move" name="bot"/>
    </contour>
    <contour>
      <point x="812" y="-20" type="curve" smooth="yes"/>
      <point x="1100" y="-20"/>
      <point x="1324" y="138"/>
      <point x="1374" y="375" type="curve"/>
      <point x="1205" y="436" type="line"/>
      <point x="1187" y="436" type="line"/>
      <point x="1151" y="274"/>
      <point x="1009" y="155"/>
      <point x="824" y="155" type="curve" smooth="yes"/>
      <point x="562" y="155"/>
      <point x="386" y="338"/>
      <point x="386" y="730" type="curve" smooth="yes"/>
      <point x="386" y="1128"/>
      <point x="567" y="1302"/>
      <point x="826" y="1302" type="curve" smooth="yes"/>
      <point x="1010" y="1302"/>
      <point x="1148" y="1184"/>
      <point x="1184" y="1022" type="curve"/>
      <point x="1202" y="1022" type="line"/>
      <point x="1371" y="1082" type="line"/>
      <point x="1321" y="1318"/>
      <point x="1095" y="1478"/>
      <point x="811" y="1478" type="curve" smooth="yes"/>
      <point x="406" y="1478"/>
      <point x="144" y="1205"/>
      <point x="144" y="730" type="curve" smooth="yes"/>
      <point x="144" y="252"/>
      <point x="407" y="-20"/>
    </contour>
  </outline>
</glyph>
<glyph name="E" format="1">
  <advance width="1320"/>
  <unicode hex="0045"/>
  <outline>
    <contour>
      <point x="742" y="1456" type="move" name="top"/>
    </contour>
    <contour>
      <point x="910" y="0" type="move" name="ogonek"/>
    </contour>
    <contour>
      <point x="700" y="0" type="move" name="bot"/>
    </contour>
    <contour>
      <point x="196" y="0" type="line"/>
      <point x="1179" y="0" type="line"/>
      <point x="1190" y="171" type="line"/>
      <point x="429" y="171" type="line"/>
      <point x="429" y="667" type="line"/>
      <point x="1113" y="667" type="line"/>
      <point x="1113" y="836" type="line"/>
      <point x="429" y="836" type="line"/>
      <point x="429" y="1288" type="line"/>
      <point x="1163" y="1288" type="line"/>
      <point x="1173" y="1456" type="line"/>
      <point x="196" y="1456" type="line"/>
    </contour>
  </outline>
</glyph>
<glyph name="F" format="1">
  <advance width="1214"/>
  <unicode hex="0046"/>
  <outline>
    <contour>
      <point x="736" y="1456" type="move" name="top"/>
    </contour>
    <contour>
      <point x="196" y="0" type="line"/>
      <point x="429" y="0" type="line"/>
      <point x="429" y="644" type="line"/>
      <point x="1066" y="644" type="line"/>
      <point x="1066" y="809" type="line"/>
      <point x="429" y="809" type="line"/>
      <point x="429" y="1283" type="line"/>
      <point x="1161" y="1283" type="line"/>
      <point x="1172" y="1456" type="line"/>
      <point x="196" y="1456" type="line"/>
    </contour>
  </outline>
</glyph>
<glyph name="G" format="1">
  <advance width="1502"/>
  <unicode hex="0047"/>
  <outline>
    <contour>
      <point x="807" y="1456" type="move" name="top"/>
    </contour>
    <contour>
      <point x="796" y="1" type="move" name="bot"/>
    </contour>
    <contour>
      <point x="826" y="-20" type="curve" smooth="yes"/>
      <point x="1035" y="-20"/>
      <point x="1211" y="18"/>
      <point x="1356" y="75" type="curve"/>
      <point x="1356" y="775" type="line"/>
      <point x="837" y="775" type="line"/>
      <point x="828" y="628" type="line"/>
      <point x="1151" y="606" type="line"/>
      <point x="1151" y="196" type="line"/>
      <point x="1084" y="175"/>
      <point x="989" y="155"/>
      <point x="865" y="155" type="curve" smooth="yes"/>
      <point x="531" y="155"/>
      <point x="386" y="360"/>
      <point x="386" y="735" type="curve" smooth="yes"/>
      <point x="386" y="1085"/>
      <point x="547" y="1301"/>
      <point x="859" y="1301" type="curve" smooth="yes"/>
      <point x="1038" y="1301"/>
      <point x="1153" y="1218"/>
      <point x="1213" y="1140" type="curve"/>
      <point x="1231" y="1140" type="line"/>
      <point x="1360" y="1249" type="line"/>
      <point x="1275" y="1379"/>
      <point x="1096" y="1476"/>
      <point x="847" y="1476" type="curve" smooth="yes"/>
      <point x="406" y="1476"/>
      <point x="144" y="1192"/>
      <point x="144" y="734" type="curve" smooth="yes"/>
      <point x="144" y="278"/>
      <point x="377" y="-20"/>
    </contour>
  </outline>
</glyph>
<glyph name="J" format="1">
  <advance width="801"/>
  <unicode hex="004A"/>
  <outline>
    <contour>
      <point x="470" y="1456" type="move" name="top"/>
    </contour>
    <contour>
      <point x="172" y="-447" type="line"/>
      <point x="278" y="-407" type="line"/>
      <point x="552" y="-300"/>
      <point x="581" y="-227"/>
      <point x="581" y="79" type="curve" smooth="yes"/>
      <point x="581" y="1456" type="line"/>
      <point x="348" y="1456" type="line"/>
      <point x="348" y="82" type="line" smooth="yes"/>
      <point x="348" y="-132"/>
      <point x="341" y="-164"/>
      <point x="235" y="-210" type="curve" smooth="yes"/>
      <point x="97" y="-271" type="line"/>
    </contour>
  </outline>
</glyph>
<glyph name="L" format="1">
  <advance width="1124"/>
  <unicode hex="004C"/>
  <outline>
    <contour>
      <point x="428" y="1456" type="move" name="top"/>
    </contour>
    <contour>
      <point x="618" y="0" type="move" name="bot"/>
    </contour>
    <contour>
      <point x="341" y="762" type="move" name="mid"/>
    </contour>
    <contour>
      <point x="196" y="0" type="line"/>
      <point x="1110" y="0" type="line"/>
      <point x="1119" y="165" type="line"/>
      <point x="429" y="165" type="line"/>
      <point x="429" y="1456" type="line"/>
      <point x="196" y="1456" type="line"/>
    </contour>
  </outline>
</glyph>
<glyph name="M" format="1">
  <advance width="1834"/>
  <unicode hex="004D"/>
  <outline>
    <contour>
      <point x="928" y="1456" type="move" name="top"/>
    </contour>
    <contour>
      <point x="177" y="-2" type="line"/>
      <point x="395" y="-2" type="line"/>
      <point x="395" y="495" type="line"/>
      <point x="404" y="1142" type="line"/>
      <point x="829" y="186" type="line"/>
      <point x="1002" y="186" type="line"/>
      <point x="1431" y="1134" type="line"/>
      <point x="1438" y="498" type="line"/>
      <point x="1438" y="-2" type="line"/>
      <point x="1657" y="-2" type="line"/>
      <point x="1657" y="514" type="line"/>
      <point x="1633" y="1456" type="line"/>
      <point x="1377" y="1456" type="line"/>
      <point x="919" y="451" type="line"/>
      <point x="464" y="1456" type="line"/>
      <point x="200" y="1456" type="line"/>
      <point x="177" y="512" type="line"/>
    </contour>
  </outline>
</glyph>
<glyph name="N" format="1">
  <advance width="1548"/>
  <unicode hex="004E"/>
  <outline>
    <contour>
      <point x="783" y="1456" type="move" name="top"/>
    </contour>
    <contour>
      <point x="775" y="0" type="move" name="bot"/>
    </contour>
    <contour>
      <point x="196" y="0" type="line"/>
      <point x="413" y="0" type="line"/>
      <point x="413" y="696" type="line"/>
      <point x="396" y="1131" type="line"/>
      <point x="1114" y="0" type="line"/>
      <point x="1351" y="0" type="line"/>
      <point x="1351" y="1456" type="line"/>
      <point x="1139" y="1456" type="line"/>
      <point x="1139" y="717" type="line"/>
      <point x="1151" y="306" type="line"/>
      <point x="425" y="1456" type="line"/>
      <point x="196" y="1456" type="line"/>
    </contour>
  </outline>
</glyph>
<glyph name="O" format="1">
  <advance width="1628"/>
  <unicode hex="004F"/>
  <outline>
    <contour>
      <point x="815" y="1456" type="move" name="top"/>
    </contour>
    <contour>
      <point x="873" y="1" type="move" name="ogonek"/>
    </contour>
    <contour>
      <point x="815" y="158" type="curve" smooth="yes"/>
      <point x="507" y="158"/>
      <point x="389" y="380"/>
      <point x="389" y="720" type="curve" smooth="yes"/>
      <point x="389" y="1072"/>
      <point x="516" y="1297"/>
      <point x="817" y="1297" type="curve" smooth="yes"/>
      <point x="1119" y="1297"/>
      <point x="1240" y="1071"/>
      <point x="1240" y="720" type="curve" smooth="yes"/>
      <point x="1240" y="380"/>
      <point x="1124" y="158"/>
    </contour>
    <contour>
      <point x="817" y="-20" type="curve" smooth="yes"/>
      <point x="1263" y="-20"/>
      <point x="1481" y="267"/>
      <point x="1481" y="720" type="curve" smooth="yes"/>
      <point x="1481" y="1186"/>
      <point x="1254" y="1476"/>
      <point x="818" y="1476" type="curve" smooth="yes"/>
      <point x="374" y="1476"/>
      <point x="148" y="1188"/>
      <point x="148" y="721" type="curve" smooth="yes"/>
      <point x="148" y="263"/>
      <point x="367" y="-20"/>
    </contour>
  </outline>
</glyph>
<glyph name="Q" format="1">
  <advance width="1611"/>
  <unicode hex="0051"/>
  <outline>
    <contour>
      <point x="1182" y="-461" type="curve"/>
      <point x="1330" y="-348" type="line"/>
      <point x="1191" y="-216"/>
      <point x="1066" y="-42"/>
      <point x="1010" y="79" type="curve"/>
      <point x="808" y="48" type="line"/>
      <point x="865" y="-81"/>
      <point x="1050" y="-340"/>
    </contour>
    <component base="O"/>
  </outline>
</glyph>
<glyph name="R" format="1">
  <advance width="1383"/>
  <unicode hex="0052"/>
  <outline>
    <contour>
      <point x="722" y="1456" type="move" name="top"/>
    </contour>
    <contour>
      <point x="726" y="0" type="move" name="bot"/>
    </contour>
    <contour>
      <point x="200" y="0" type="line"/>
      <point x="433" y="0" type="line"/>
      <point x="433" y="650" type="line"/>
      <point x="732" y="651" type="line"/>
      <point x="1063" y="0" type="line"/>
      <point x="1313" y="0" type="line"/>
      <point x="1313" y="19" type="line"/>
      <point x="965" y="680" type="line"/>
      <point x="1147" y="727"/>
      <point x="1267" y="840"/>
      <point x="1267" y="1063" type="curve" smooth="yes"/>
      <point x="1267" y="1356"/>
      <point x="1120" y="1465"/>
      <point x="690" y="1465" type="curve" smooth="yes"/>
      <point x="557" y="1465"/>
      <point x="333" y="1458"/>
      <point x="200" y="1448" type="curve"/>
    </contour>
    <contour>
      <point x="433" y="804" type="line"/>
      <point x="433" y="1298" type="line"/>
      <point x="529" y="1306"/>
      <point x="622" y="1305"/>
      <point x="693" y="1305" type="curve" smooth="yes"/>
      <point x="988" y="1305"/>
      <point x="1053" y="1227"/>
      <point x="1053" y="1062" type="curve" smooth="yes"/>
      <point x="1053" y="875"/>
      <point x="975" y="804"/>
      <point x="675" y="804" type="curve" smooth="yes"/>
    </contour>
  </outline>
</glyph>
<glyph name="U" format="1">
  <advance width="1470"/>
  <unicode hex="0055"/>
  <outline>
    <contour>
      <point x="742" y="1456" type="move" name="top"/>
    </contour>
    <contour>
      <point x="857" y="15" type="move" name="ogonek"/>
    </contour>
    <contour>
      <point x="734" y="1" type="move" name="bot"/>
    </contour>
    <contour>
      <point x="732" y="-20" type="curve" smooth="yes"/>
      <point x="1122" y="-20"/>
      <point x="1302" y="209"/>
      <point x="1302" y="538" type="curve" smooth="yes"/>
      <point x="1302" y="1457" type="line"/>
      <point x="1068" y="1457" type="line"/>
      <point x="1068" y="549" type="line" smooth="yes"/>
      <point x="1068" y="290"/>
      <point x="966" y="159"/>
      <point x="732" y="159" type="curve" smooth="yes"/>
      <point x="493" y="159"/>
      <point x="398" y="290"/>
      <point x="398" y="549" type="curve" smooth="yes"/>
      <point x="398" y="1457" type="line"/>
      <point x="164" y="1457" type="line"/>
      <point x="164" y="540" type="line" smooth="yes"/>
      <point x="164" y="204"/>
      <point x="339" y="-20"/>
    </contour>
  </outline>
</glyph>
<glyph name="Y" format="1">
  <advance width="1361"/>
  <unicode hex="0059"/>
  <outline>
    <contour>
      <point x="682" y="1456" type="move" name="top"/>
    </contour>
    <contour>
      <point x="565" y="0" type="line"/>
      <point x="798" y="0" type="line"/>
      <point x="798" y="526" type="line"/>
      <point x="1300" y="1456" type="line"/>
      <point x="1064" y="1456" type="line"/>
      <point x="681" y="735" type="line"/>
      <point x="289" y="1456" type="line"/>
      <point x="60" y="1456" type="line"/>
      <point x="565" y="528" type="line"/>
    </contour>
  </outline>
</glyph>
<glyph name="Z" format="1">
  <advance width="1206"/>
  <unicode hex="005A"/>
  <outline>
    <contour>
      <point x="661" y="1456" type="move" name="top"/>
    </contour>
    <contour>
      <point x="638" y="0" type="move" name="bot"/>
    </contour>
    <contour>
      <point x="95" y="0" type="line"/>
      <point x="1137" y="0" type="line"/>
      <point x="1139" y="165" type="line"/>
      <point x="364" y="165" type="line"/>
      <point x="1129" y="1307" type="line"/>
      <point x="1124" y="1456" type="line"/>
      <point x="121" y="1456" type="line"/>
      <point x="126" y="1291" type="line"/>
      <point x="872" y="1291" type="line"/>
      <point x="95" y="146" type="line"/>
    </contour>
  </outline>
</glyph>
<glyph name="grave" format="1">
  <advance width="960"/>
  <unicode hex="0060"/>
  <outline>
    <contour>
      <point x="492" y="1069" type="move" name="_top"/>
    </contour>
    <contour>
      <point x="409" y="1209" type="line"/>
      <point x="544" y="1209" type="line"/>
      <point x="354" y="1592" type="line"/>
      <point x="94" y="1592" type="line"/>
    </contour>
  </outline>
</glyph>
<glyph name="a" format="1">
  <advance width="1133"/>
  <unicode hex="0061"/>
  <outline>
    <contour>
      <point x="562" y="1083" type="move" name="top"/>
    </contour>
    <contour>
      <point x="899" y="1" type="move" name="ogonek"/>
    </contour>
    <contour>
      <point x="526" y="1" type="move" name="bot"/>
    </contour>
    <contour>
      <point x="453" y="-19" type="curve" smooth="yes"/>
      <point x="604" y="-19"/>
      <point x="710" y="33"/>
      <point x="794" y="130" type="curve"/>
      <point x="812" y="0" type="line"/>
      <point x="987" y="0" type="line"/>
      <point x="987" y="690" type="line" smooth="yes"/>
      <point x="987" y="992"/>
      <point x="810" y="1105"/>
      <point x="564" y="1105" type="curve" smooth="yes"/>
      <point x="419" y="1105"/>
      <point x="264" y="1070"/>
      <point x="145" y="999" type="curve"/>
      <point x="201" y="846" type="line"/>
      <point x="308" y="911"/>
      <point x="446" y="944"/>
      <point x="547" y="944" type="curve" smooth="yes"/>
      <point x="694" y="944"/>
      <point x="771" y="877"/>
      <point x="771" y="716" type="curve" smooth="yes"/>
      <point x="771" y="601" type="line"/>
      <point x="546" y="604" type="line" smooth="yes"/>
      <point x="264" y="604"/>
      <point x="107" y="501"/>
      <point x="107" y="296" type="curve" smooth="yes"/>
      <point x="107" y="85"/>
      <point x="248" y="-19"/>
    </contour>
    <contour>
      <point x="500" y="123" type="curve" smooth="yes"/>
      <point x="395" y="123"/>
      <point x="310" y="168"/>
      <point x="310" y="296" type="curve" smooth="yes"/>
      <point x="310" y="420"/>
      <point x="389" y="478"/>
      <point x="590" y="478" type="curve" smooth="yes"/>
      <point x="770" y="477" type="line"/>
      <point x="770" y="252" type="line"/>
      <point x="711" y="176"/>
      <point x="617" y="123"/>
    </contour>
  </outline>
</glyph>
<glyph name="b" format="1">
  <advance width="1232"/>
  <unicode hex="0062"/>
  <outline>
    <contour>
      <point x="689" y="1082" type="move" name="top"/>
    </contour>
    <contour>
      <point x="665" y="-20" type="curve" smooth="yes"/>
      <point x="960" y="-20"/>
      <point x="1122" y="207"/>
      <point x="1122" y="544" type="curve" smooth="yes"/>
      <point x="1122" y="869"/>
      <point x="988" y="1105"/>
      <point x="695" y="1105" type="curve" smooth="yes"/>
      <point x="568" y="1105"/>
      <point x="442" y="1058"/>
      <point x="372" y="896" type="curve"/>
      <point x="380" y="1117" type="line"/>
      <point x="380" y="1560" type="line"/>
      <point x="162" y="1540" type="line"/>
      <point x="162" y="0" type="line"/>
      <point x="345" y="0" type="line"/>
      <point x="356" y="119" type="line"/>
      <point x="417" y="42"/>
      <point x="520" y="-20"/>
    </contour>
    <contour>
      <point x="639" y="134" type="curve" smooth="yes"/>
      <point x="523" y="134"/>
      <point x="433" y="177"/>
      <point x="374" y="258" type="curve"/>
      <point x="374" y="560" type="line" smooth="yes"/>
      <point x="374" y="809"/>
      <point x="466" y="950"/>
      <point x="657" y="950" type="curve" smooth="yes"/>
      <point x="836" y="950"/>
      <point x="899" y="795"/>
      <point x="899" y="544" type="curve" smooth="yes"/>
      <point x="899" y="283"/>
      <point x="814" y="134"/>
    </contour>
  </outline>
</glyph>
<glyph name="c" format="1">
  <advance width="1099"/>
  <unicode hex="0063"/>
  <outline>
    <contour>
      <point x="623" y="1083" type="move" name="top"/>
    </contour>
    <contour>
      <point x="611" y="1" type="move" name="bot"/>
    </contour>
    <contour>
      <point x="613" y="-20" type="curve" smooth="yes"/>
      <point x="844" y="-20"/>
      <point x="959" y="92"/>
      <point x="1014" y="217" type="curve"/>
      <point x="880" y="287" type="line"/>
      <point x="867" y="287" type="line"/>
      <point x="818" y="195"/>
      <point x="749" y="138"/>
      <point x="622" y="139" type="curve" smooth="yes"/>
      <point x="434" y="139"/>
      <point x="333" y="283"/>
      <point x="333" y="543" type="curve" smooth="yes"/>
      <point x="333" y="805"/>
      <point x="435" y="946"/>
      <point x="625" y="946" type="curve" smooth="yes"/>
      <point x="750" y="947"/>
      <point x="820" y="887"/>
      <point x="869" y="796" type="curve"/>
      <point x="882" y="796" type="line"/>
      <point x="1014" y="869" type="line"/>
      <point x="961" y="992"/>
      <point x="847" y="1105"/>
      <point x="612" y="1105" type="curve" smooth="yes"/>
      <point x="308" y="1105"/>
      <point x="110" y="888"/>
      <point x="110" y="543" type="curve" smooth="yes"/>
      <point x="110" y="198"/>
      <point x="305" y="-20"/>
    </contour>
  </outline>
</glyph>
<glyph name="e" format="1">
  <advance width="1155"/>
  <unicode hex="0065"/>
  <outline>
    <contour>
      <point x="625" y="1082" type="move" name="top"/>
    </contour>
    <contour>
      <point x="889" y="42" type="move" name="ogonek"/>
    </contour>
    <contour>
      <point x="638" y="1" type="move" name="bot"/>
    </contour>
    <contour>
      <point x="643" y="-20" type="curve" smooth="yes"/>
      <point x="802" y="-20"/>
      <point x="938" y="27"/>
      <point x="1026" y="93" type="curve"/>
      <point x="977" y="225" type="line"/>
      <point x="963" y="225" type="line"/>
      <point x="875" y="174"/>
      <point x="791" y="134"/>
      <point x="670" y="134" type="curve" smooth="yes"/>
      <point x="487" y="134"/>
      <point x="349" y="246"/>
      <point x="333" y="495" type="curve"/>
      <point x="1043" y="495" type="line"/>
      <point x="1043" y="498"/>
      <point x="1052" y="571"/>
      <point x="1052" y="612" type="curve" smooth="yes"/>
      <point x="1050" y="913"/>
      <point x="899" y="1105"/>
      <point x="618" y="1105" type="curve" smooth="yes"/>
      <point x="333" y="1105"/>
      <point x="112" y="896"/>
      <point x="112" y="539" type="curve" smooth="yes"/>
      <point x="112" y="192"/>
      <point x="337" y="-20"/>
    </contour>
    <contour>
      <point x="334" y="628" type="line"/>
      <point x="351" y="834"/>
      <point x="465" y="951"/>
      <point x="628" y="951" type="curve" smooth="yes"/>
      <point x="787" y="951"/>
      <point x="864" y="837"/>
      <point x="866" y="628" type="curve"/>
    </contour>
  </outline>
</glyph>
<glyph name="f" format="1">
  <advance width="778"/>
  <unicode hex="0066"/>
  <outline>
    <contour>
      <point x="405" y="1456" type="move" name="top"/>
    </contour>
    <contour>
      <point x="240" y="0" type="line"/>
      <point x="459" y="0" type="line"/>
      <point x="459" y="952" type="line"/>
      <point x="731" y="952" type="line"/>
      <point x="731" y="1082" type="line"/>
      <point x="459" y="1082" type="line"/>
      <point x="459" y="1161" type="line" smooth="yes"/>
      <point x="459" y="1324"/>
      <point x="499" y="1364"/>
      <point x="632" y="1364" type="curve" smooth="yes"/>
      <point x="667" y="1364"/>
      <point x="725" y="1358"/>
      <point x="744" y="1356" type="curve"/>
      <point x="755" y="1498" type="line"/>
      <point x="747" y="1501"/>
      <point x="676" y="1518"/>
      <point x="567" y="1518" type="curve" smooth="yes"/>
      <point x="367" y="1518"/>
      <point x="240" y="1455"/>
      <point x="240" y="1161" type="curve" smooth="yes"/>
      <point x="240" y="1079" type="line"/>
      <point x="65" y="1063" type="line"/>
      <point x="60" y="952" type="line"/>
      <point x="240" y="952" type="line"/>
    </contour>
  </outline>
</glyph>
<glyph name="g" format="1">
  <advance width="1217"/>
  <unicode hex="0067"/>
  <outline>
    <contour>
      <point x="598" y="1082" type="move" name="top"/>
    </contour>
    <contour>
      <point x="564" y="-492" type="curve" smooth="yes"/>
      <point x="906" y="-492"/>
      <point x="1065" y="-321"/>
      <point x="1065" y="39" type="curve" smooth="yes"/>
      <point x="1065" y="1082" type="line"/>
      <point x="869" y="1082" type="line"/>
      <point x="863" y="976" type="line"/>
      <point x="804" y="1048"/>
      <point x="709" y="1105"/>
      <point x="574" y="1105" type="curve" smooth="yes"/>
      <point x="301" y="1105"/>
      <point x="106" y="902"/>
      <point x="106" y="550" type="curve" smooth="yes"/>
      <point x="106" y="177"/>
      <point x="294" y="-15"/>
      <point x="568" y="-15" type="curve" smooth="yes"/>
      <point x="674" y="-15"/>
      <point x="784" y="15"/>
      <point x="859" y="94" type="curve"/>
      <point x="861" y="79"/>
      <point x="862" y="1"/>
      <point x="862" y="-1" type="curve" smooth="yes"/>
      <point x="862" y="-253"/>
      <point x="745" y="-332"/>
      <point x="549" y="-332" type="curve" smooth="yes"/>
      <point x="458" y="-332"/>
      <point x="349" y="-312"/>
      <point x="264" y="-278" type="curve"/>
      <point x="240" y="-278" type="line"/>
      <point x="222" y="-438" type="line"/>
      <point x="314" y="-470"/>
      <point x="437" y="-492"/>
    </contour>
    <contour>
      <point x="602" y="134" type="curve" smooth="yes"/>
      <point x="418" y="134"/>
      <point x="328" y="283"/>
      <point x="328" y="550" type="curve" smooth="yes"/>
      <point x="328" y="815"/>
      <point x="429" y="950"/>
      <point x="601" y="950" type="curve" smooth="yes"/>
      <point x="712" y="950"/>
      <point x="792" y="911"/>
      <point x="853" y="828" type="curve"/>
      <point x="853" y="239" type="line"/>
      <point x="800" y="171"/>
      <point x="705" y="134"/>
    </contour>
  </outline>
</glyph>
<glyph name="h" format="1">
  <advance width="1228"/>
  <unicode hex="0068"/>
  <outline>
    <contour>
      <point x="699" y="1390" type="move" name="top"/>
    </contour>
    <contour>
      <point x="295" y="1274" type="move" name="mid"/>
    </contour>
    <contour>
      <point x="162" y="0" type="line"/>
      <point x="380" y="0" type="line"/>
      <point x="380" y="601" type="line" smooth="yes"/>
      <point x="380" y="787"/>
      <point x="453" y="950"/>
      <point x="663" y="950" type="curve" smooth="yes"/>
      <point x="805" y="950"/>
      <point x="861" y="858"/>
      <point x="861" y="654" type="curve" smooth="yes"/>
      <point x="861" y="0" type="line"/>
      <point x="1082" y="0" type="line"/>
      <point x="1082" y="671" type="line" smooth="yes"/>
      <point x="1082" y="945"/>
      <point x="957" y="1105"/>
      <point x="723" y="1105" type="curve" smooth="yes"/>
      <point x="570" y="1105"/>
      <point x="445" y="1046"/>
      <point x="375" y="888" type="curve"/>
      <point x="381" y="1149" type="line"/>
      <point x="381" y="1560" type="line"/>
      <point x="162" y="1540" type="line"/>
    </contour>
  </outline>
</glyph>
<glyph name="j" format="1">
  <advance width="610"/>
  <unicode hex="006A"/>
  <outline>
    <contour>
      <point x="45" y="-431" type="line"/>
      <point x="112" y="-414" type="line"/>
      <point x="345" y="-362"/>
      <point x="448" y="-288"/>
      <point x="448" y="-16" type="curve" smooth="yes"/>
      <point x="448" y="1082" type="line"/>
      <point x="229" y="1082" type="line"/>
      <point x="229" y="15" type="line" smooth="yes"/>
      <point x="229" y="-163"/>
      <point x="221" y="-201"/>
      <point x="66" y="-244" type="curve" smooth="yes"/>
      <point x="-5" y="-265" type="line"/>
    </contour>
    <component base="dotaccent" xOffset="86"/>
  </outline>
</glyph>
<glyph name="n" format="1">
  <advance width="1219"/>
  <unicode hex="006E"/>
  <outline>
    <contour>
      <point x="697" y="1082" type="move" name="top"/>
    </contour>
    <contour>
      <point x="616" y="0" type="move" name="bot"/>
    </contour>
    <contour>
      <point x="157" y="0" type="line"/>
      <point x="376" y="0" type="line"/>
      <point x="376" y="614" type="line" smooth="yes"/>
      <point x="376" y="806"/>
      <point x="463" y="950"/>
      <point x="660" y="950" type="curve" smooth="yes"/>
      <point x="806" y="950"/>
      <point x="854" y="842"/>
      <point x="854" y="657" type="curve" smooth="yes"/>
      <point x="854" y="0" type="line"/>
      <point x="1072" y="0" type="line"/>
      <point x="1072" y="656" type="line" smooth="yes"/>
      <point x="1072" y="943"/>
      <point x="958" y="1105"/>
      <point x="716" y="1105" type="curve" smooth="yes"/>
      <point x="542" y="1105"/>
      <point x="424" y="1030"/>
      <point x="360" y="881" type="curve"/>
      <point x="341" y="1082" type="line"/>
      <point x="157" y="1082" type="line"/>
    </contour>
  </outline>
</glyph>
<glyph name="q" format="1">
  <advance width="1227"/>
  <unicode hex="0071"/>
  <outline>
    <contour>
      <point x="854" y="-462" type="line"/>
      <point x="1071" y="-462" type="line"/>
      <point x="1071" y="1082" type="line"/>
      <point x="883" y="1082" type="line"/>
      <point x="875" y="955" type="line"/>
      <point x="816" y="1041"/>
      <point x="717" y="1105"/>
      <point x="574" y="1105" type="curve" smooth="yes"/>
      <point x="280" y="1105"/>
      <point x="111" y="876"/>
      <point x="111" y="546" type="curve" smooth="yes"/>
      <point x="111" y="210"/>
      <point x="270" y="-20"/>
      <point x="574" y="-20" type="curve" smooth="yes"/>
      <point x="672" y="-20"/>
      <point x="781" y="11"/>
      <point x="857" y="90" type="curve"/>
      <point x="854" y="-28" type="line"/>
    </contour>
    <contour>
      <point x="607" y="134" type="curve" smooth="yes"/>
      <point x="429" y="134"/>
      <point x="334" y="269"/>
      <point x="334" y="546" type="curve" smooth="yes"/>
      <point x="334" y="809"/>
      <point x="426" y="950"/>
      <point x="602" y="950" type="curve" smooth="yes"/>
      <point x="711" y="950"/>
      <point x="799" y="908"/>
      <point x="858" y="821" type="curve"/>
      <point x="858" y="245" type="line"/>
      <point x="806" y="175"/>
      <point x="716" y="134"/>
    </contour>
  </outline>
</glyph>
<glyph name="s" format="1">
  <advance width="991"/>
  <unicode hex="0073"/>
  <outline>
    <contour>
      <point x="502" y="1083" type="move" name="top"/>
    </contour>
    <contour>
      <point x="485" y="1" type="move" name="bot"/>
    </contour>
    <contour>
      <point x="513" y="-20" type="curve" smooth="yes"/>
      <point x="736" y="-20"/>
      <point x="904" y="91"/>
      <point x="904" y="317" type="curve" smooth="yes"/>
      <point x="904" y="437"/>
      <point x="862" y="539"/>
      <point x="625" y="619" type="curve"/>
      <point x="490" y="666" type="line" smooth="yes"/>
      <point x="356" y="710"/>
      <point x="331" y="745"/>
      <point x="331" y="809" type="curve" smooth="yes"/>
      <point x="331" y="896"/>
      <point x="389" y="949"/>
      <point x="525" y="949" type="curve" smooth="yes"/>
      <point x="632" y="949"/>
      <point x="716" y="907"/>
      <point x="764" y="845" type="curve"/>
      <point x="775" y="845" type="line"/>
      <point x="886" y="938" type="line"/>
      <point x="817" y="1042"/>
      <point x="686" y="1105"/>
      <point x="510" y="1105" type="curve" smooth="yes"/>
      <point x="267" y="1105"/>
      <point x="113" y="992"/>
      <point x="113" y="808" type="curve" smooth="yes"/>
      <point x="113" y="672"/>
      <point x="158" y="583"/>
      <point x="408" y="501" type="curve" smooth="yes"/>
      <point x="534" y="459" type="line" smooth="yes"/>
      <point x="679" y="413"/>
      <point x="702" y="369"/>
      <point x="702" y="306" type="curve" smooth="yes"/>
      <point x="702" y="190"/>
      <point x="631" y="132"/>
      <point x="504" y="132" type="curve" smooth="yes"/>
      <point x="406" y="132"/>
      <point x="285" y="165"/>
      <point x="205" y="264" type="curve"/>
      <point x="188" y="264" type="line"/>
      <point x="78" y="163" type="line"/>
      <point x="167" y="42"/>
      <point x="330" y="-20"/>
    </contour>
  </outline>
</glyph>
<glyph name="t" format="1">
  <advance width="819"/>
  <unicode hex="0074"/>
  <outline>
    <contour>
      <point x="354" y="1366" type="move" name="top"/>
    </contour>
    <contour>
      <point x="484" y="0" type="move" name="bot"/>
    </contour>
    <contour>
      <point x="370" y="648" type="move" name="mid"/>
    </contour>
    <contour>
      <point x="597" y="-8" type="curve" smooth="yes"/>
      <point x="720" y="-7" type="line"/>
      <point x="729" y="143" type="line"/>
      <point x="610" y="147" type="line" smooth="yes"/>
      <point x="457" y="153"/>
      <point x="441" y="190"/>
      <point x="441" y="349" type="curve" smooth="yes"/>
      <point x="441" y="951" type="line"/>
      <point x="729" y="951" type="line"/>
      <point x="729" y="1082" type="line"/>
      <point x="441" y="1082" type="line"/>
      <point x="441" y="1392" type="line"/>
      <point x="254" y="1378" type="line"/>
      <point x="229" y="1082" type="line"/>
      <point x="60" y="1071" type="line"/>
      <point x="54" y="951" type="line"/>
      <point x="223" y="951" type="line"/>
      <point x="223" y="352" type="line" smooth="yes"/>
      <point x="223" y="88"/>
      <point x="272" y="-8"/>
    </contour>
  </outline>
</glyph>
<glyph name="v" format="1">
  <advance width="1085"/>
  <unicode hex="0076"/>
  <outline>
    <contour>
      <point x="437" y="0" type="line"/>
      <point x="658" y="0" type="line"/>
      <point x="1039" y="1082" type="line"/>
      <point x="819" y="1082" type="line"/>
      <point x="738" y="838"/>
      <point x="635" y="493"/>
      <point x="552" y="250" type="curve"/>
      <point x="458" y="525"/>
      <point x="366" y="804"/>
      <point x="274" y="1082" type="curve"/>
      <point x="49" y="1082" type="line"/>
    </contour>
  </outline>
</glyph>
<glyph name="z" format="1">
  <advance width="1001"/>
  <unicode hex="007A"/>
  <outline>
    <contour>
      <point x="504" y="1082" type="move" name="top"/>
    </contour>
    <contour>
      <point x="487" y="0" type="move" name="bot"/>
    </contour>
    <contour>
      <point x="94" y="0" type="line"/>
      <point x="903" y="0" type="line"/>
      <point x="899" y="154" type="line"/>
      <point x="336" y="154" type="line"/>
      <point x="891" y="951" type="line"/>
      <point x="891" y="1082" type="line"/>
      <point x="111" y="1082" type="line"/>
      <point x="113" y="935" type="line"/>
      <point x="661" y="935" type="line"/>
      <point x="94" y="123" type="line"/>
    </contour>
  </outline>
</glyph>
<glyph name="copyright" format="1">
  <advance width="1729"/>
  <unicode hex="00A9"/>
  <outline>
    <contour>
      <point x="811" y="239" type="curve" smooth="yes"/>
      <point x="911" y="239"/>
      <point x="1009" y="266"/>
      <point x="1095" y="320" type="curve"/>
      <point x="1057" y="416" type="line"/>
      <point x="974" y="366"/>
      <point x="896" y="348"/>
      <point x="818" y="348" type="curve" smooth="yes"/>
      <point x="627" y="348"/>
      <point x="475" y="490"/>
      <point x="475" y="732" type="curve" smooth="yes"/>
      <point x="475" y="961"/>
      <point x="626" y="1107"/>
      <point x="812" y="1107" type="curve" smooth="yes"/>
      <point x="885" y="1107"/>
      <point x="974" y="1084"/>
      <point x="1048" y="1035" type="curve"/>
      <point x="1093" y="1132" type="line"/>
      <point x="1005" y="1189"/>
      <point x="907" y="1218"/>
      <point x="805" y="1218" type="curve" smooth="yes"/>
      <point x="553" y="1218"/>
      <point x="334" y="1021"/>
      <point x="334" y="728" type="curve" smooth="yes"/>
      <point x="334" y="430"/>
      <point x="557" y="239"/>
    </contour>
    <contour>
      <point x="791" y="75" type="curve" smooth="yes"/>
      <point x="456" y="75"/>
      <point x="148" y="318"/>
      <point x="148" y="727" type="curve" smooth="yes"/>
      <point x="148" y="1138"/>
      <point x="456" y="1379"/>
      <point x="791" y="1379" type="curve" smooth="yes"/>
      <point x="1127" y="1379"/>
      <point x="1437" y="1138"/>
      <point x="1437" y="727" type="curve" smooth="yes"/>
      <point x="1437" y="318"/>
      <point x="1127" y="75"/>
    </contour>
    <contour>
      <point x="791" y="-30" type="curve" smooth="yes"/>
      <point x="1187" y="-30"/>
      <point x="1562" y="250"/>
      <point x="1562" y="727" type="curve" smooth="yes"/>
      <point x="1562" y="1207"/>
      <point x="1186" y="1486"/>
      <point x="791" y="1486" type="curve" smooth="yes"/>
      <point x="397" y="1486"/>
      <point x="29" y="1207"/>
      <point x="29" y="727" type="curve" smooth="yes"/>
      <point x="29" y="250"/>
      <point x="397" y="-30"/>
    </contour>
  </outline>
</glyph>
<glyph name="uni00AD" format="1">
  <advance width="917"/>
  <unicode hex="00AD"/>
  <outline>
    <contour>
      <point x="125" y="410" type="line"/>
      <point x="790" y="410" type="line"/>
      <point x="790" y="572" type="line"/>
      <point x="125" y="572" type="line"/>
    </contour>
  </outline>
</glyph>
<glyph name="registered" format="1">
  <advance width="1862"/>
  <unicode hex="00AE"/>
  <outline>
    <contour>
      <point x="623" y="301" type="line"/>
      <point x="750" y="301" type="line"/>
      <point x="750" y="717" type="line"/>
      <point x="926" y="717" type="line"/>
      <point x="932" y="709"/>
      <point x="1140" y="301"/>
      <point x="1140" y="301" type="curve"/>
      <point x="1285" y="301" type="line"/>
      <point x="1285" y="301"/>
      <point x="1067" y="713"/>
      <point x="1055" y="730" type="curve"/>
      <point x="1191" y="752"/>
      <point x="1248" y="834"/>
      <point x="1248" y="965" type="curve" smooth="yes"/>
      <point x="1248" y="1139"/>
      <point x="1149" y="1203"/>
      <point x="927" y="1203" type="curve" smooth="yes"/>
      <point x="623" y="1203" type="line"/>
    </contour>
    <contour>
      <point x="751" y="819" type="line"/>
      <point x="751" y="1095" type="line"/>
      <point x="763" y="1095"/>
      <point x="914" y="1096"/>
      <point x="918" y="1096" type="curve" smooth="yes"/>
      <point x="1067" y="1096"/>
      <point x="1123" y="1081"/>
      <point x="1123" y="959" type="curve" smooth="yes"/>
      <point x="1123" y="855"/>
      <point x="1073" y="819"/>
      <point x="933" y="819" type="curve" smooth="yes"/>
    </contour>
    <contour>
      <point x="915" y="75" type="curve" smooth="yes"/>
      <point x="586" y="75"/>
      <point x="285" y="318"/>
      <point x="285" y="728" type="curve" smooth="yes"/>
      <point x="285" y="1138"/>
      <point x="586" y="1381"/>
      <point x="915" y="1381" type="curve" smooth="yes"/>
      <point x="1245" y="1381"/>
      <point x="1549" y="1137"/>
      <point x="1549" y="728" type="curve" smooth="yes"/>
      <point x="1549" y="318"/>
      <point x="1245" y="75"/>
    </contour>
    <contour>
      <point x="915" y="-30" type="curve" smooth="yes"/>
      <point x="1303" y="-30"/>
      <point x="1670" y="250"/>
      <point x="1670" y="728" type="curve" smooth="yes"/>
      <point x="1670" y="1206"/>
      <point x="1303" y="1486"/>
      <point x="915" y="1486" type="curve" smooth="yes"/>
      <point x="528" y="1486"/>
      <point x="161" y="1206"/>
      <point x="161" y="728" type="curve" smooth="yes"/>
      <point x="161" y="250"/>
      <point x="528" y="-30"/>
    </contour>
  </outline>
</glyph>
<glyph name="macron" format="1">
  <advance width="1122"/>
  <unicode hex="00AF"/>
  <outline>
    <contour>
      <point x="560" y="1069" type="move" name="_top"/>
    </contour>
    <contour>
      <point x="545" y="1366" type="move" name="_mid"/>
    </contour>
    <contour>
      <point x="243" y="1314" type="line"/>
      <point x="854" y="1314" type="line"/>
      <point x="854" y="1425" type="line"/>
      <point x="243" y="1425" type="line"/>
    </contour>
  </outline>
</glyph>
<glyph name="uni00B3" format="1">
  <advance width="877"/>
  <unicode hex="00B3"/>
  <outline>
    <contour>
      <point x="436" y="618" type="curve" smooth="yes"/>
      <point x="596" y="618"/>
      <point x="739" y="700"/>
      <point x="739" y="870" type="curve" smooth="yes"/>
      <point x="739" y="976"/>
      <point x="675" y="1058"/>
      <point x="579" y="1079" type="curve"/>
      <point x="677" y="1101"/>
      <point x="726" y="1176"/>
      <point x="727" y="1270" type="curve" smooth="yes"/>
      <point x="727" y="1430"/>
      <point x="601" y="1493"/>
      <point x="459" y="1493" type="curve" smooth="yes"/>
      <point x="349" y="1493"/>
      <point x="241" y="1460"/>
      <point x="170" y="1402" type="curve"/>
      <point x="221" y="1311" type="line"/>
      <point x="280" y="1355"/>
      <point x="354" y="1382"/>
      <point x="438" y="1382" type="curve" smooth="yes"/>
      <point x="529" y="1382"/>
      <point x="597" y="1344"/>
      <point x="597" y="1258" type="curve" smooth="yes"/>
      <point x="597" y="1182"/>
      <point x="556" y="1130"/>
      <point x="429" y="1130" type="curve" smooth="yes"/>
      <point x="313" y="1130" type="line"/>
      <point x="313" y="1022" type="line"/>
      <point x="428" y="1023" type="line"/>
      <point x="550" y="1023"/>
      <point x="611" y="962"/>
      <point x="611" y="874" type="curve" smooth="yes"/>
      <point x="611" y="777"/>
      <point x="530" y="730"/>
      <point x="432" y="730" type="curve" smooth="yes"/>
      <point x="342" y="730"/>
      <point x="266" y="760"/>
      <point x="217" y="806" type="curve"/>
      <point x="164" y="702" type="line"/>
      <point x="233" y="647"/>
      <point x="335" y="618"/>
    </contour>
  </outline>
</glyph>
<glyph name="uni00B5" format="1">
  <advance width="1212"/>
  <unicode hex="00B5"/>
  <outline>
    <contour>
      <point x="1067" y="1082" type="line"/>
      <point x="849" y="1082" type="line"/>
      <point x="849" y="267" type="line"/>
      <point x="810" y="215"/>
      <point x="731" y="133"/>
      <point x="579" y="133" type="curve" smooth="yes"/>
      <point x="425" y="133"/>
      <point x="367" y="230"/>
      <point x="367" y="418" type="curve" smooth="yes"/>
      <point x="367" y="1082" type="line"/>
      <point x="148" y="1082" type="line"/>
      <point x="148" y="-296" type="line"/>
      <point x="367" y="-296" type="line"/>
      <point x="367" y="16" type="line"/>
      <point x="421" y="-7"/>
      <point x="486" y="-17"/>
      <point x="560" y="-14" type="curve" smooth="yes"/>
      <point x="705" y="-8"/>
      <point x="801" y="55"/>
      <point x="867" y="141" type="curve"/>
      <point x="878" y="0" type="line"/>
      <point x="1067" y="0" type="line"/>
    </contour>
  </outline>
</glyph>
<glyph name="cedilla" format="1">
  <advance width="700"/>
  <unicode hex="00B8"/>
  <outline>
    <contour>
      <point x="426" y="13" type="move" name="_bot"/>
    </contour>
    <contour>
      <point x="374" y="-406" type="curve" smooth="yes"/>
      <point x="516" y="-406"/>
      <point x="625" y="-329"/>
      <point x="625" y="-204" type="curve" smooth="yes"/>
      <point x="625" y="-94"/>
      <point x="553" y="-39"/>
      <point x="457" y="-39" type="curve" smooth="yes"/>
      <point x="423" y="-39"/>
      <point x="387" y="-46"/>
      <point x="349" y="-60" type="curve"/>
      <point x="350" y="-116" type="line"/>
      <point x="369" y="-113"/>
      <point x="385" y="-112"/>
      <point x="400" y="-112" type="curve" smooth="yes"/>
      <point x="480" y="-112"/>
      <point x="504" y="-153"/>
      <point x="504" y="-197" type="curve" smooth="yes"/>
      <point x="504" y="-266"/>
      <point x="444" y="-305"/>
      <point x="364" y="-305" type="curve" smooth="yes"/>
      <point x="328" y="-305"/>
      <point x="287" y="-297"/>
      <point x="247" y="-279" type="curve"/>
      <point x="213" y="-372" type="line"/>
      <point x="265" y="-394"/>
      <point x="319" y="-406"/>
    </contour>
  </outline>
</glyph>
<glyph name="ordmasculine" format="1">
  <advance width="982"/>
  <unicode hex="00BA"/>
  <outline>
    <contour>
      <point x="488" y="827" type="curve" smooth="yes"/>
      <point x="360" y="827"/>
      <point x="297" y="923"/>
      <point x="297" y="1093" type="curve" smooth="yes"/>
      <point x="297" y="1264"/>
      <point x="361" y="1363"/>
      <point x="488" y="1363" type="curve" smooth="yes"/>
      <point x="618" y="1363"/>
      <point x="686" y="1262"/>
      <point x="686" y="1090" type="curve" smooth="yes"/>
      <point x="686" y="923"/>
      <point x="622" y="827"/>
    </contour>
    <contour>
      <point x="488" y="694" type="curve" smooth="yes"/>
      <point x="710" y="694"/>
      <point x="848" y="862"/>
      <point x="848" y="1093" type="curve" smooth="yes"/>
      <point x="848" y="1332"/>
      <point x="725" y="1496"/>
      <point x="488" y="1496" type="curve" smooth="yes"/>
      <point x="255" y="1496"/>
      <point x="128" y="1330"/>
      <point x="128" y="1093" type="curve" smooth="yes"/>
      <point x="128" y="859"/>
      <point x="255" y="694"/>
    </contour>
  </outline>
</glyph>
<glyph name="guillemotright" format="1">
  <advance width="1049"/>
  <unicode hex="00BB"/>
  <outline>
    <contour>
      <point x="278" y="142" type="line"/>
      <point x="561" y="556" type="line"/>
      <point x="276" y="972" type="line"/>
      <point x="90" y="972" type="line"/>
      <point x="364" y="558" type="line"/>
      <point x="95" y="142" type="line"/>
    </contour>
    <contour>
      <point x="658" y="142" type="line"/>
      <point x="941" y="556" type="line"/>
      <point x="656" y="972" type="line"/>
      <point x="470" y="972" type="line"/>
      <point x="744" y="558" type="line"/>
      <point x="475" y="142" type="line"/>
    </contour>
  </outline>
</glyph>
<glyph name="AE" format="1">
  <advance width="1697"/>
  <unicode hex="00C6"/>
  <outline>
    <contour>
      <point x="-72" y="0" type="line"/>
      <point x="168" y="0" type="line"/>
      <point x="404" y="440" type="line"/>
      <point x="818" y="440" type="line"/>
      <point x="818" y="0" type="line"/>
      <point x="1629" y="0" type="line"/>
      <point x="1640" y="168" type="line"/>
      <point x="1022" y="168" type="line"/>
      <point x="1022" y="674" type="line"/>
      <point x="1563" y="674" type="line"/>
      <point x="1563" y="839" type="line"/>
      <point x="1022" y="839" type="line"/>
      <point x="1022" y="1291" type="line"/>
      <point x="1613" y="1291" type="line"/>
      <point x="1623" y="1456" type="line"/>
      <point x="730" y="1456" type="line"/>
    </contour>
    <contour>
      <point x="478" y="591" type="line"/>
      <point x="818" y="1241" type="line"/>
      <point x="818" y="591" type="line"/>
    </contour>
  </outline>
</glyph>
<glyph name="multiply" format="1">
  <advance width="994"/>
  <unicode hex="00D7"/>
  <outline>
    <contour>
      <point x="885" y="321" type="line"/>
      <point x="885" y="321"/>
      <point x="638" y="587"/>
      <point x="602" y="625" type="curve"/>
      <point x="882" y="925" type="line"/>
      <point x="774" y="1036" type="line"/>
      <point x="495" y="738" type="line"/>
      <point x="214" y="1039" type="line"/>
      <point x="109" y="927" type="line"/>
      <point x="388" y="625" type="line"/>
      <point x="102" y="318" type="line"/>
      <point x="208" y="207" type="line"/>
      <point x="495" y="511" type="line"/>
      <point x="781" y="207" type="line"/>
    </contour>
  </outline>
</glyph>
<glyph name="ae" format="1">
  <advance width="1677"/>
  <unicode hex="00E6"/>
  <outline>
    <contour>
      <point x="911" y="1082" type="move" name="top"/>
    </contour>
    <contour>
      <point x="1228" y="-20" type="curve" smooth="yes"/>
      <point x="1386" y="-20"/>
      <point x="1522" y="27"/>
      <point x="1610" y="93" type="curve"/>
      <point x="1557" y="228" type="line"/>
      <point x="1469" y="176"/>
      <point x="1382" y="134"/>
      <point x="1254" y="134" type="curve" smooth="yes"/>
      <point x="1080" y="134"/>
      <point x="949" y="213"/>
      <point x="930" y="469" type="curve"/>
      <point x="1009" y="465"/>
      <point x="1084" y="462"/>
      <point x="1155" y="462" type="curve" smooth="yes"/>
      <point x="1419" y="466"/>
      <point x="1605" y="525"/>
      <point x="1605" y="763" type="curve" smooth="yes"/>
      <point x="1605" y="942"/>
      <point x="1478" y="1102"/>
      <point x="1219" y="1102" type="curve" smooth="yes"/>
      <point x="1061" y="1102"/>
      <point x="936" y="1043"/>
      <point x="858" y="906" type="curve"/>
      <point x="816" y="1046"/>
      <point x="694" y="1102"/>
      <point x="520" y="1102" type="curve" smooth="yes"/>
      <point x="353" y="1102"/>
      <point x="221" y="1057"/>
      <point x="87" y="973" type="curve"/>
      <point x="156" y="838" type="line"/>
      <point x="279" y="913"/>
      <point x="410" y="942"/>
      <point x="510" y="942" type="curve" smooth="yes"/>
      <point x="657" y="942"/>
      <point x="731" y="881"/>
      <point x="731" y="712" type="curve" smooth="yes"/>
      <point x="731" y="616" type="line"/>
      <point x="663" y="624"/>
      <point x="534" y="627"/>
      <point x="493" y="627" type="curve" smooth="yes"/>
      <point x="203" y="627"/>
      <point x="63" y="503"/>
      <point x="63" y="296" type="curve" smooth="yes"/>
      <point x="63" y="90"/>
      <point x="196" y="-12"/>
      <point x="390" y="-19" type="curve"/>
      <point x="567" y="-19"/>
      <point x="740" y="36"/>
      <point x="828" y="191" type="curve"/>
      <point x="903" y="57"/>
      <point x="1035" y="-20"/>
    </contour>
    <contour>
      <point x="455" y="123" type="curve" smooth="yes"/>
      <point x="370" y="123"/>
      <point x="266" y="166"/>
      <point x="266" y="297" type="curve" smooth="yes"/>
      <point x="266" y="420"/>
      <point x="327" y="501"/>
      <point x="527" y="501" type="curve" smooth="yes"/>
      <point x="563" y="501"/>
      <point x="665" y="496"/>
      <point x="731" y="489" type="curve" smooth="yes"/>
      <point x="731" y="481"/>
      <point x="736" y="352"/>
      <point x="740" y="341" type="curve" smooth="yes"/>
      <point x="731" y="204"/>
      <point x="613" y="123"/>
    </contour>
    <contour>
      <point x="932" y="608" type="curve"/>
      <point x="946" y="842"/>
      <point x="1058" y="950"/>
      <point x="1224" y="950" type="curve" smooth="yes"/>
      <point x="1378" y="950"/>
      <point x="1429" y="861"/>
      <point x="1429" y="755" type="curve" smooth="yes"/>
      <point x="1429" y="657"/>
      <point x="1376" y="579"/>
    </contour>
  </outline>
</glyph>
<glyph name="eth" format="1">
  <advance width="1219"/>
  <unicode hex="00F0"/>
  <outline>
    <contour>
      <point x="603" y="-21" type="curve" smooth="yes"/>
      <point x="938" y="-21"/>
      <point x="1106" y="195"/>
      <point x="1107" y="491" type="curve" smooth="yes"/>
      <point x="1108" y="636"/>
      <point x="1071" y="776"/>
      <point x="1015" y="882" type="curve" smooth="yes"/>
      <point x="944" y="1009"/>
      <point x="842" y="1135"/>
      <point x="670" y="1321" type="curve"/>
      <point x="915" y="1415" type="line"/>
      <point x="853" y="1545" type="line"/>
      <point x="565" y="1433" type="line"/>
      <point x="421" y="1575" type="line"/>
      <point x="196" y="1575" type="line"/>
      <point x="411" y="1370" type="line"/>
      <point x="202" y="1287" type="line"/>
      <point x="260" y="1155" type="line"/>
      <point x="511" y="1254" type="line"/>
      <point x="664" y="1103"/>
      <point x="764" y="976"/>
      <point x="816" y="883" type="curve"/>
      <point x="761" y="921"/>
      <point x="691" y="969"/>
      <point x="575" y="969" type="curve" smooth="yes"/>
      <point x="292" y="969"/>
      <point x="97" y="776"/>
      <point x="97" y="486" type="curve" smooth="yes"/>
      <point x="97" y="210"/>
      <point x="282" y="-21"/>
    </contour>
    <contour>
      <point x="609" y="139" type="curve" smooth="yes"/>
      <point x="399" y="139"/>
      <point x="294" y="303"/>
      <point x="294" y="487" type="curve" smooth="yes"/>
      <point x="294" y="680"/>
      <point x="407" y="823"/>
      <point x="603" y="823" type="curve" smooth="yes"/>
      <point x="808" y="823"/>
      <point x="922" y="667"/>
      <point x="922" y="492" type="curve" smooth="yes"/>
      <point x="922" y="278"/>
      <point x="814" y="139"/>
    </contour>
  </outline>
</glyph>
<glyph name="divide" format="1">
  <advance width="1195"/>
  <unicode hex="00F7"/>
  <outline>
    <contour>
      <point x="484" y="28" type="line"/>
      <point x="703" y="28" type="line"/>
      <point x="703" y="260" type="line"/>
      <point x="484" y="260" type="line"/>
    </contour>
    <contour>
      <point x="99" y="502" type="line"/>
      <point x="1087" y="502" type="line"/>
      <point x="1087" y="661" type="line"/>
      <point x="99" y="661" type="line"/>
    </contour>
    <contour>
      <point x="484" y="890" type="line"/>
      <point x="707" y="890" type="line"/>
      <point x="707" y="1115" type="line"/>
      <point x="484" y="1115" type="line"/>
    </contour>
  </outline>
</glyph>
<glyph name="thorn" format="1">
  <advance width="1212"/>
  <unicode hex="00FE"/>
  <outline>
    <contour>
      <point x="160" y="-453" type="line"/>
      <point x="348" y="-453" type="line"/>
      <point x="348" y="87" type="line"/>
      <point x="414" y="22"/>
      <point x="513" y="-20"/>
      <point x="635" y="-20" type="curve" smooth="yes"/>
      <point x="929" y="-20"/>
      <point x="1095" y="205"/>
      <point x="1095" y="545" type="curve" smooth="yes"/>
      <point x="1095" y="868"/>
      <point x="966" y="1107"/>
      <point x="673" y="1107" type="curve" smooth="yes"/>
      <point x="554" y="1107"/>
      <point x="421" y="1069"/>
      <point x="348" y="885" type="curve"/>
      <point x="356" y="1109" type="line"/>
      <point x="356" y="1560" type="line"/>
      <point x="160" y="1540" type="line"/>
    </contour>
    <contour>
      <point x="622" y="125" type="curve" smooth="yes"/>
      <point x="518" y="125"/>
      <point x="417" y="158"/>
      <point x="348" y="243" type="curve"/>
      <point x="348" y="555" type="line" smooth="yes"/>
      <point x="349" y="801"/>
      <point x="428" y="960"/>
      <point x="644" y="960" type="curve" smooth="yes"/>
      <point x="834" y="960"/>
      <point x="895" y="790"/>
      <point x="895" y="543" type="curve" smooth="yes"/>
      <point x="895" y="281"/>
      <point x="811" y="125"/>
    </contour>
  </outline>
</glyph>
<glyph name="kgreenlandic" format="1">
  <advance width="1110"/>
  <unicode hex="0138"/>
  <outline>
    <contour>
      <point x="143" y="0" type="line"/>
      <point x="338" y="0" type="line"/>
      <point x="338" y="386" type="line"/>
      <point x="452" y="488" type="line"/>
      <point x="844" y="0" type="line"/>
      <point x="1062" y="0" type="line"/>
      <point x="1062" y="19" type="line"/>
      <point x="594" y="589" type="line"/>
      <point x="1032" y="1060" type="line"/>
      <point x="1032" y="1082" type="line"/>
      <point x="806" y="1082" type="line"/>
      <point x="332" y="561" type="line"/>
      <point x="338" y="781" type="line"/>
      <point x="338" y="1082" type="line"/>
      <point x="143" y="1082" type="line"/>
    </contour>
  </outline>
</glyph>
<glyph name="Eng" format="1">
  <advance width="1542"/>
  <unicode hex="014A"/>
  <outline>
    <contour>
      <point x="1351" y="1456" type="line"/>
      <point x="1139" y="1456" type="line"/>
      <point x="1139" y="717" type="line"/>
      <point x="1151" y="316" type="line"/>
      <point x="425" y="1456" type="line"/>
      <point x="196" y="1456" type="line"/>
      <point x="196" y="0" type="line"/>
      <point x="413" y="0" type="line"/>
      <point x="413" y="696" type="line"/>
      <point x="396" y="1131" type="line"/>
      <point x="1139" y="-5" type="line"/>
      <point x="1140" y="-221"/>
      <point x="1094" y="-290"/>
      <point x="756" y="-290" type="curve"/>
      <point x="763" y="-449" type="line"/>
      <point x="1188" y="-444"/>
      <point x="1351" y="-340"/>
      <point x="1351" y="-16" type="curve" smooth="yes"/>
    </contour>
  </outline>
</glyph>
<glyph name="OE" format="1">
  <advance width="2330"/>
  <unicode hex="0152"/>
  <outline>
    <contour>
      <point x="784" y="-19" type="curve" smooth="yes"/>
      <point x="979" y="-19"/>
      <point x="1126" y="43"/>
      <point x="1219" y="155" type="curve"/>
      <point x="1219" y="0" type="line"/>
      <point x="2184" y="0" type="line"/>
      <point x="2194" y="168" type="line"/>
      <point x="1430" y="168" type="line"/>
      <point x="1430" y="668" type="line"/>
      <point x="2117" y="668" type="line"/>
      <point x="2117" y="834" type="line"/>
      <point x="1430" y="834" type="line"/>
      <point x="1430" y="1291" type="line"/>
      <point x="2168" y="1291" type="line"/>
      <point x="2178" y="1456" type="line"/>
      <point x="1219" y="1456" type="line"/>
      <point x="1219" y="1298" type="line"/>
      <point x="1125" y="1414"/>
      <point x="977" y="1478"/>
      <point x="784" y="1478" type="curve" smooth="yes"/>
      <point x="351" y="1478"/>
      <point x="126" y="1193"/>
      <point x="126" y="723" type="curve" smooth="yes"/>
      <point x="126" y="263"/>
      <point x="343" y="-19"/>
    </contour>
    <contour>
      <point x="783" y="156" type="curve" smooth="yes"/>
      <point x="464" y="156"/>
      <point x="345" y="383"/>
      <point x="345" y="722" type="curve" smooth="yes"/>
      <point x="345" y="1075"/>
      <point x="473" y="1303"/>
      <point x="784" y="1303" type="curve" smooth="yes"/>
      <point x="1096" y="1303"/>
      <point x="1218" y="1073"/>
      <point x="1218" y="722" type="curve" smooth="yes"/>
      <point x="1218" y="383"/>
      <point x="1102" y="156"/>
    </contour>
  </outline>
</glyph>
<glyph name="florin" format="1">
  <advance width="1069"/>
  <unicode hex="0192"/>
  <outline>
    <contour>
      <point x="106" y="-300" type="curve" smooth="yes"/>
      <point x="286" y="-300"/>
      <point x="429" y="-158"/>
      <point x="489" y="119" type="curve" smooth="yes"/>
      <point x="678" y="985" type="line"/>
      <point x="924" y="985" type="line"/>
      <point x="940" y="1066" type="line"/>
      <point x="696" y="1066" type="line"/>
      <point x="735" y="1275" type="line" smooth="yes"/>
      <point x="757" y="1393"/>
      <point x="801" y="1477"/>
      <point x="894" y="1477" type="curve" smooth="yes"/>
      <point x="968" y="1477"/>
      <point x="994" y="1414"/>
      <point x="999" y="1303" type="curve"/>
      <point x="1138" y="1303" type="line"/>
      <point x="1135" y="1508"/>
      <point x="1034" y="1589"/>
      <point x="880" y="1589" type="curve" smooth="yes"/>
      <point x="675" y="1589"/>
      <point x="567" y="1453"/>
      <point x="530" y="1250" type="curve" smooth="yes"/>
      <point x="497" y="1066" type="line"/>
      <point x="318" y="1066" type="line"/>
      <point x="301" y="985" type="line"/>
      <point x="484" y="985" type="line"/>
      <point x="293" y="117" type="line"/>
      <point x="256" y="-67"/>
      <point x="262" y="-195"/>
      <point x="100" y="-195" type="curve" smooth="yes"/>
      <point x="69" y="-195"/>
      <point x="34" y="-190"/>
      <point x="-10" y="-182" type="curve"/>
      <point x="-32" y="-275" type="line"/>
      <point x="17" y="-292"/>
      <point x="63" y="-300"/>
    </contour>
  </outline>
</glyph>
<glyph name="apostrophemod" format="1">
  <advance width="646"/>
  <unicode hex="02BC"/>
  <outline>
    <contour>
      <point x="101" y="1141" type="curve"/>
      <point x="265" y="1141" type="line"/>
      <point x="265" y="1141"/>
      <point x="353" y="1476"/>
      <point x="372" y="1585" type="curve"/>
      <point x="163" y="1585" type="line"/>
      <point x="157" y="1530"/>
      <point x="101" y="1141"/>
    </contour>
  </outline>
</glyph>
<glyph name="circumflex" format="1">
  <advance width="896"/>
  <unicode hex="02C6"/>
  <outline>
    <contour>
      <point x="437" y="1082" type="move" name="_top"/>
    </contour>
    <contour>
      <point x="125" y="1262" type="line"/>
      <point x="306" y="1262" type="line"/>
      <point x="434" y="1487" type="line"/>
      <point x="560" y="1262" type="line"/>
      <point x="741" y="1262" type="line"/>
      <point x="542" y="1620" type="line"/>
      <point x="325" y="1620" type="line"/>
    </contour>
  </outline>
</glyph>
<glyph name="breve" format="1">
  <advance width="887"/>
  <unicode hex="02D8"/>
  <outline>
    <contour>
      <point x="431" y="1069" type="move" name="_top"/>
    </contour>
    <contour>
      <point x="428" y="1295" type="curve" smooth="yes"/>
      <point x="576" y="1295"/>
      <point x="685" y="1379"/>
      <point x="685" y="1545" type="curve"/>
      <point x="555" y="1545" type="line"/>
      <point x="555" y="1461"/>
      <point x="492" y="1422"/>
      <point x="428" y="1422" type="curve" smooth="yes"/>
      <point x="364" y="1422"/>
      <point x="305" y="1461"/>
      <point x="305" y="1545" type="curve"/>
      <point x="172" y="1545" type="line"/>
      <point x="172" y="1379"/>
      <point x="281" y="1295"/>
    </contour>
  </outline>
</glyph>
<glyph name="ring" format="1">
  <advance width="734"/>
  <unicode hex="02DA"/>
  <outline>
    <contour>
      <point x="352" y="1069" type="move" name="_top"/>
    </contour>
    <contour>
      <point x="353" y="1286" type="curve" smooth="yes"/>
      <point x="294" y="1286"/>
      <point x="259" y="1333"/>
      <point x="259" y="1390" type="curve" smooth="yes"/>
      <point x="259" y="1444"/>
      <point x="296" y="1493"/>
      <point x="353" y="1493" type="curve" smooth="yes"/>
      <point x="411" y="1493"/>
      <point x="451" y="1444"/>
      <point x="451" y="1390" type="curve" smooth="yes"/>
      <point x="451" y="1334"/>
      <point x="411" y="1286"/>
    </contour>
    <contour>
      <point x="353" y="1197" type="curve" smooth="yes"/>
      <point x="473" y="1197"/>
      <point x="555" y="1285"/>
      <point x="555" y="1391" type="curve" smooth="yes"/>
      <point x="555" y="1496"/>
      <point x="474" y="1584"/>
      <point x="353" y="1584" type="curve" smooth="yes"/>
      <point x="234" y="1584"/>
      <point x="154" y="1497"/>
      <point x="154" y="1391" type="curve" smooth="yes"/>
      <point x="154" y="1285"/>
      <point x="234" y="1197"/>
    </contour>
  </outline>
</glyph>
<glyph name="uni0307" format="1">
  <advance width="478"/>
  <unicode hex="0307"/>
  <outline>
    <contour>
      <point x="244" y="1319" type="curve" smooth="yes"/>
      <point x="333" y="1319"/>
      <point x="384" y="1369"/>
      <point x="384" y="1453" type="curve" smooth="yes"/>
      <point x="384" y="1534"/>
      <point x="333" y="1583"/>
      <point x="244" y="1583" type="curve" smooth="yes"/>
      <point x="155" y="1583"/>
      <point x="104" y="1534"/>
      <point x="104" y="1453" type="curve" smooth="yes"/>
      <point x="104" y="1369"/>
      <point x="155" y="1319"/>
    </contour>
  </outline>
</glyph>
<glyph name="dblgravecomb" format="1">
  <advance width="935"/>
  <unicode hex="030F"/>
  <outline>
    <contour>
      <point x="504" y="1069" type="move" name="_top"/>
    </contour>
    <contour>
      <point x="292" y="1249" type="line"/>
      <point x="412" y="1249" type="line"/>
      <point x="263" y="1612" type="line"/>
      <point x="56" y="1612" type="line"/>
    </contour>
    <contour>
      <point x="586" y="1249" type="line"/>
      <point x="711" y="1249" type="line"/>
      <point x="574" y="1612" type="line"/>
      <point x="385" y="1612" type="line"/>
    </contour>
  </outline>
</glyph>
<glyph name="breveinvertedcomb" format="1">
  <advance width="813"/>
  <unicode hex="0311"/>
  <outline>
    <contour>
      <point x="419" y="1069" type="move" name="_top"/>
    </contour>
    <contour>
      <point x="159" y="1295" type="curve"/>
      <point x="292" y="1295" type="line"/>
      <point x="292" y="1378"/>
      <point x="352" y="1418"/>
      <point x="415" y="1418" type="curve" smooth="yes"/>
      <point x="478" y="1418"/>
      <point x="542" y="1378"/>
      <point x="542" y="1295" type="curve"/>
      <point x="672" y="1295" type="line"/>
      <point x="672" y="1460"/>
      <point x="562" y="1545"/>
      <point x="415" y="1545" type="curve" smooth="yes"/>
      <point x="268" y="1545"/>
      <point x="159" y="1461"/>
    </contour>
  </outline>
</glyph>
<glyph name="commaturnedabovecomb" format="1">
  <advance width="600"/>
  <unicode hex="0312"/>
  <outline>
    <contour>
      <point x="295" y="1069" type="move" name="_top"/>
    </contour>
    <contour>
      <point x="182" y="1280" type="line"/>
      <point x="400" y="1280" type="line"/>
      <point x="400" y="1336"/>
      <point x="439" y="1785"/>
      <point x="439" y="1785" type="curve"/>
      <point x="300" y="1785" type="line"/>
      <point x="300" y="1785"/>
      <point x="187" y="1339"/>
      <point x="187" y="1301" type="curve"/>
    </contour>
  </outline>
</glyph>
<glyph name="commaaccent" format="1">
  <advance width="613"/>
  <unicode hex="0326"/>
  <outline>
    <contour>
      <point x="333" y="0" type="move" name="_bot"/>
    </contour>
    <contour>
      <point x="180" y="-529" type="curve"/>
      <point x="322" y="-529" type="line"/>
      <point x="322" y="-529"/>
      <point x="423" y="-253"/>
      <point x="430" y="-146" type="curve" smooth="yes"/>
      <point x="430" y="-127" type="line"/>
      <point x="235" y="-127" type="line"/>
      <point x="232" y="-199"/>
      <point x="188" y="-475"/>
    </contour>
  </outline>
</glyph>
<glyph name="quotedblleft" format="1">
  <advance width="920"/>
  <unicode hex="201C"/>
  <outline>
    <contour>
      <point x="149" y="1022" type="line"/>
      <point x="364" y="1022" type="line"/>
      <point x="408" y="1514" type="line"/>
      <point x="262" y="1514" type="line"/>
    </contour>
    <contour>
      <point x="518" y="1022" type="line"/>
      <point x="733" y="1022" type="line"/>
      <point x="777" y="1514" type="line"/>
      <point x="630" y="1514" type="line"/>
    </contour>
  </outline>
</glyph>
<glyph name="dagger" format="1">
  <advance width="1081"/>
  <unicode hex="2020"/>
  <outline>
    <contour>
      <point x="451" y="54" type="line"/>
      <point x="621" y="54" type="line"/>
      <point x="621" y="973" type="line"/>
      <point x="922" y="973" type="line"/>
      <point x="922" y="1104" type="line"/>
      <point x="621" y="1104" type="line"/>
      <point x="621" y="1484" type="line"/>
      <point x="451" y="1484" type="line"/>
      <point x="451" y="1104" type="line"/>
      <point x="160" y="1104" type="line"/>
      <point x="160" y="973" type="line"/>
      <point x="451" y="973" type="line"/>
    </contour>
  </outline>
</glyph>
<glyph name="guilsinglleft" format="1">
  <advance width="673"/>
  <unicode hex="2039"/>
  <outline>
    <contour>
      <point x="384" y="142" type="line"/>
      <point x="579" y="142" type="line"/>
      <point x="308" y="557" type="line"/>
      <point x="586" y="974" type="line"/>
      <point x="389" y="974" type="line"/>
      <point x="103" y="555" type="line"/>
    </contour>
  </outline>
</glyph>
<glyph name="fraction" format="1">
  <advance width="1071"/>
  <unicode hex="2044"/>
  <outline>
    <contour>
      <point x="111" y="0" type="line"/>
      <point x="275" y="0" type="line"/>
      <point x="1005" y="1489" type="line"/>
      <point x="841" y="1489" type="line"/>
    </contour>
  </outline>
</glyph>
<glyph name="uni2126" format="1">
  <advance width="1744"/>
  <unicode hex="2126"/>
  <outline>
    <contour>
      <point x="111" y="0" type="line"/>
      <point x="788" y="0" type="line"/>
      <point x="788" y="173" type="line"/>
      <point x="561" y="271"/>
      <point x="384" y="487"/>
      <point x="384" y="757" type="curve" smooth="yes"/>
      <point x="384" y="1030"/>
      <point x="570" y="1258"/>
      <point x="874" y="1258" type="curve" smooth="yes"/>
      <point x="1172" y="1258"/>
      <point x="1359" y="1029"/>
      <point x="1359" y="757" type="curve" smooth="yes"/>
      <point x="1359" y="487"/>
      <point x="1178" y="272"/>
      <point x="960" y="173" type="curve"/>
      <point x="960" y="0" type="line"/>
      <point x="1633" y="0" type="line"/>
      <point x="1633" y="173" type="line"/>
      <point x="1117" y="173" type="line"/>
      <point x="1131" y="93" type="line"/>
      <point x="1411" y="202"/>
      <point x="1627" y="452"/>
      <point x="1627" y="794" type="curve" smooth="yes"/>
      <point x="1627" y="1149"/>
      <point x="1352" y="1484"/>
      <point x="874" y="1484" type="curve" smooth="yes"/>
      <point x="394" y="1484"/>
      <point x="116" y="1148"/>
      <point x="116" y="792" type="curve" smooth="yes"/>
      <point x="116" y="451"/>
      <point x="331" y="202"/>
      <point x="616" y="93" type="curve"/>
      <point x="630" y="173" type="line"/>
      <point x="111" y="173" type="line"/>
    </contour>
  </outline>
</glyph>
<glyph name="partialdiff" format="1">
  <advance width="1225"/>
  <unicode hex="2202"/>
  <outline>
    <contour>
      <point x="489" y="-19" type="curve" smooth="yes"/>
      <point x="841" y="-19"/>
      <point x="1076" y="385"/>
      <point x="1076" y="913" type="curve" smooth="yes"/>
      <point x="1076" y="1316"/>
      <point x="840" y="1560"/>
      <point x="548" y="1560" type="curve" smooth="yes"/>
      <point x="451" y="1560"/>
      <point x="348" y="1533"/>
      <point x="245" y="1475" type="curve"/>
      <point x="289" y="1365" type="line"/>
      <point x="363" y="1403"/>
      <point x="437" y="1420"/>
      <point x="505" y="1420" type="curve" smooth="yes"/>
      <point x="718" y="1420"/>
      <point x="882" y="1252"/>
      <point x="882" y="970" type="curve" smooth="yes"/>
      <point x="882" y="959"/>
      <point x="882" y="945"/>
      <point x="881" y="932" type="curve"/>
      <point x="426" y="924"/>
      <point x="172" y="569"/>
      <point x="172" y="295" type="curve" smooth="yes"/>
      <point x="172" y="122"/>
      <point x="273" y="-19"/>
    </contour>
    <contour>
      <point x="503" y="99" type="curve" smooth="yes"/>
      <point x="429" y="99"/>
      <point x="392" y="169"/>
      <point x="392" y="265" type="curve" smooth="yes"/>
      <point x="392" y="474"/>
      <point x="560" y="807"/>
      <point x="875" y="828" type="curve"/>
      <point x="855" y="542"/>
      <point x="744" y="99"/>
    </contour>
  </outline>
</glyph>
<glyph name="infinity" format="1">
  <advance width="1685"/>
  <unicode hex="221E"/>
  <outline>
    <contour>
      <point x="434" y="250" type="curve" smooth="yes"/>
      <point x="598" y="250"/>
      <point x="726" y="363"/>
      <point x="844" y="523" type="curve"/>
      <point x="979" y="339"/>
      <point x="1101" y="250"/>
      <point x="1251" y="250" type="curve" smooth="yes"/>
      <point x="1447" y="250"/>
      <point x="1601" y="410"/>
      <point x="1601" y="640" type="curve" smooth="yes"/>
      <point x="1601" y="860"/>
      <point x="1476" y="1019"/>
      <point x="1253" y="1019" type="curve" smooth="yes"/>
      <point x="1081" y="1019"/>
      <point x="956" y="904"/>
      <point x="844" y="744" type="curve"/>
      <point x="723" y="909"/>
      <point x="598" y="1019"/>
      <point x="430" y="1019" type="curve" smooth="yes"/>
      <point x="235" y="1019"/>
      <point x="80" y="859"/>
      <point x="80" y="658" type="curve" smooth="yes"/>
      <point x="80" y="438"/>
      <point x="210" y="250"/>
    </contour>
    <contour>
      <point x="436" y="399" type="curve" smooth="yes"/>
      <point x="301" y="399"/>
      <point x="211" y="518"/>
      <point x="211" y="637" type="curve" smooth="yes"/>
      <point x="211" y="765"/>
      <point x="294" y="873"/>
      <point x="429" y="873" type="curve" smooth="yes"/>
      <point x="558" y="873"/>
      <point x="662" y="773"/>
      <point x="750" y="635" type="curve"/>
      <point x="661" y="505"/>
      <point x="554" y="399"/>
    </contour>
    <contour>
      <point x="1253" y="399" type="curve" smooth="yes"/>
      <point x="1138" y="399"/>
      <point x="1052" y="481"/>
      <point x="938" y="637" type="curve"/>
      <point x="1022" y="762"/>
      <point x="1125" y="873"/>
      <point x="1249" y="873" type="curve" smooth="yes"/>
      <point x="1374" y="873"/>
      <point x="1461" y="776"/>
      <point x="1461" y="663" type="curve" smooth="yes"/>
      <point x="1461" y="513"/>
      <point x="1395" y="399"/>
    </contour>
  </outline>
</glyph>
<glyph name="caron.alt" format="1">
  <advance width="710"/>
  <outline>
    <contour>
      <point x="175" y="1082" type="move" name="_caron.alt"/>
    </contour>
    <contour>
      <point x="437" y="1151" type="line"/>
      <point x="583" y="1151" type="line"/>
      <point x="661" y="1545" type="line"/>
      <point x="466" y="1545" type="line"/>
    </contour>
  </outline>
</glyph>
<glyph name="dotlessj" format="1">
  <advance width="618"/>
  <outline>
    <contour>
      <point x="47" y="-431" type="line"/>
      <point x="115" y="-414" type="line"/>
      <point x="348" y="-362"/>
      <point x="450" y="-288"/>
      <point x="450" y="-16" type="curve" smooth="yes"/>
      <point x="450" y="1082" type="line"/>
      <point x="231" y="1082" type="line"/>
      <point x="231" y="15" type="line" smooth="yes"/>
      <point x="231" y="-163"/>
      <point x="224" y="-201"/>
      <point x="69" y="-244" type="curve" smooth="yes"/>
      <point x="-2" y="-265" type="line"/>
    </contour>
  </outline>
</glyph>
